HIERARCHY
ROOT Spine
{
    OFFSET 0.0 0.0 -0.0
    CHANNELS 6 Xposition Yposition Zposition Zrotation Xrotation Yrotation
    JOINT ShoulderCenter
    {
        OFFSET 0.0 21.694473266601562 0.0
        CHANNELS 3 Zrotation Xrotation Yrotation
        JOINT LeftShoulder
        {
            OFFSET 16.088502883911133 0.0 0.0
            CHANNELS 3 Zrotation Xrotation Yrotation
            JOINT LeftElbow
            {
                OFFSET 23.002737045288086 0.0 0.0
                CHANNELS 3 Zrotation Xrotation Yrotation
                JOINT LeftHand
                {
                    OFFSET 24.012170791625977 0.0 0.0
                    CHANNELS 3 Zrotation Xrotation Yrotation
                    End Site
                    {
                        OFFSET 9.604867935180664 0.0 0.0
                    }
                }
            }
        }
        JOINT RightShoulder
        {
            OFFSET -16.088502883911133 0.0 0.0
            CHANNELS 3 Zrotation Xrotation Yrotation
            JOINT RightElbow
            {
                OFFSET -23.002737045288086 0.0 0.0
                CHANNELS 3 Zrotation Xrotation Yrotation
                JOINT RightHand
                {
                    OFFSET -24.012170791625977 0.0 0.0
                    CHANNELS 3 Zrotation Xrotation Yrotation
                    End Site
                    {
                        OFFSET -9.604867935180664 0.0 0.0
                    }
                }
            }
        }
        End Site
        {
            OFFSET 0.0 8.677789688110352 0.0
        }
    }
    JOINT LeftHip
    {
        OFFSET 21.20477676329255 -21.20477676329255 0.0
        CHANNELS 3 Zrotation Xrotation Yrotation
        JOINT LeftKnee
        {
            OFFSET 0.0 -31.9301815032959 0.0
            CHANNELS 3 Zrotation Xrotation Yrotation
            JOINT LeftFoot
            {
                OFFSET 0.0 -37.57223129272461 0.0
                CHANNELS 3 Zrotation Xrotation Yrotation
                End Site
                {
                    OFFSET 0.0 0.0 15.028891563415527
                }
            }
        }
    }
    JOINT RightHip
    {
        OFFSET -21.20477676329255 -21.20477676329255 0.0
        CHANNELS 3 Zrotation Xrotation Yrotation
        JOINT RightKnee
        {
            OFFSET 0.0 -31.9301815032959 0.0
            CHANNELS 3 Zrotation Xrotation Yrotation
            JOINT RightFoot
            {
                OFFSET 0.0 -37.57223129272461 0.0
                CHANNELS 3 Zrotation Xrotation Yrotation
                End Site
                {
                    OFFSET 0.0 0.0 15.028891563415527
                }
            }
        }
    }
}
MOTION
Frames: 5
Frame Time: 0.03333333333333333
-2.396399974822998 18.99340057373047 -257.15460205078125 -0.4190079954746203 3.8601606828027086 177.3184320847502 -2.7413701388648393e-08 1.9094981952831338e-07 0.48498728968714233 -73.18326155605449 -49.527226292467695 9.870658933495836 -2.1908921854181674e-06 -9.893616863710806e-07 14.013055054820239 -4.770832022195274e-15 -2.648343778830095e-31 6.361109362927033e-15 74.72516778161663 -33.28102348257955 -4.184138659437139 1.8208590770761043e-06 -5.556739388324968e-07 -21.426093099893208 -7.951386703658792e-16 3.1805546814635168e-15 2.2069531490250793e-32 5.4004637426806035 -8.248411550898195 67.45432439383714 18.83576762254523 10.378924237196369 -92.77807860122284 -3.975693351829396e-16 4.569082691340984e-33 -1.3169484227934873e-15 -4.376759736437791 -8.705714076947746 -62.37059076348447 -20.783335786559853 7.390676961925821 99.35935785395797 -3.975693351829396e-16 -1.5902773407317584e-15 -1.7890620083232284e-15
-2.402400016784668 18.999300003051758 -257.20361328125 -0.43033238095170934 3.8280854167112772 177.5105180213775 -6.563833220086013e-08 3.591459456030743e-07 0.40029332754426117 -72.90970034791607 -50.992733074028585 10.170337818502807 2.3821564861948304e-06 -6.811957684651237e-06 13.647173558431803 0.0 0.0 -3.1805546814635168e-15 74.84016404761475 -24.73764062470416 -3.7467916346978876 -1.9503954200987034e-06 1.0634517415484484e-06 -26.103601281327308 -1.1927080055488186e-15 -3.1805546814635164e-15 -3.310429723537619e-32 5.347057698014627 -8.39779099606268 67.38550762143475 18.831274091948572 10.29472810245487 -91.98395697031705 0.0 0.0 -2.286023677301902e-15 -4.448231987332642 -8.656158215751875 -62.55823780898704 -20.415846050652235 7.369270760497561 97.41316114279097 -3.9756933518293955e-16 8.965747167914385e-33 -2.584200678689107e-15
-2.410399913787842 18.98979949951172 -257.22711181640625 -0.4226738559096183 3.832705066515361 177.61128544431352 -5.039900099557507e-08 4.176515001978299e-08 0.36802743996337994 -73.39988697944705 -49.235386105651244 9.786811609509403 -9.430077045152558e-08 2.9676181463587817e-06 14.30276066147583 -8.827812596100317e-32 3.1805546814635164e-15 3.1805546814635164e-15 73.55376540777328 -16.888301096204884 -3.9319364926999043 -5.374619391690002e-07 3.3300514101119462e-06 -33.627237627573635 -4.969616689786745e-15 -3.1805546814635168e-15 4.373262687012335e-15 5.326088780792055 -8.375175829104418 67.23078442186055 18.83969089039159 10.270985959955386 -92.1813283833264 3.975693351829396e-16 -1.5902773407317584e-15 -6.212020862233431e-16 -4.465640047153581 -8.559501904416338 -62.49350069689905 -20.277858748055387 7.389471055302383 97.21382468084954 -3.975693351829396e-16 1.5000384684779837e-32 -4.3235665201144685e-15
-2.4225001335144043 18.993200302124023 -257.25408935546875 -0.42941340588200233 3.844448149921675 177.73110577018764 -2.8192873264656452e-08 -3.758229598278226e-08 0.34914529249232495 -72.81588536078206 -51.811554874877665 10.170002957899905 -1.0467496094377445e-08 -4.629470379266944e-06 14.306676276767568 -1.5902773407317584e-15 4.4139062980501586e-32 -3.1805546814635168e-15 71.943200796954 -10.57462727914072 -4.147009046393526 2.6896351479660985e-07 5.001573902026519e-06 -41.229915113302894 -2.3854160110976376e-15 3.1805546814635168e-15 -1.5902773407317584e-15 5.27034151175461 -8.434390532045434 67.05377666094546 19.19281432570819 10.269434882386484 -93.79577193793456 -3.9756933518293955e-16 -1.5902773407317584e-15 3.1308585145656493e-15 -4.522356383436602 -8.521233728746514 -62.639582802236255 -20.16207353343409 7.386289820254771 96.98992821520034 -3.4483642953516864e-33 1.5902773407317588e-15 2.484808344893373e-16
-2.436300039291382 18.974300384521484 -257.1736145019531 -0.4240645161426407 3.8859245986210422 177.19789529974108 -3.960470467441287e-09 -3.2892283851616894e-07 0.5798590065668525 -73.58227782372566 -47.38783196320471 9.450817385925534 -4.297601780936188e-06 3.9453870730648865e-06 15.887586878700048 -7.95138670365879e-15 3.180554681463516e-15 3.1805546814635168e-15 69.23860749650252 -4.161441555805321 -6.559823002494242 -7.886458966874572e-07 2.3027631300219505e-06 -50.15229914058267 0.0 6.3611093629270335e-15 0.0 5.280215137609226 -8.28663703581289 67.17979120860325 19.422114049756516 10.457358271230746 -95.72302290399594 -7.951386703658791e-16 1.5902773407317582e-15 -9.442271710594813e-16 -4.446604802229251 -8.537798725065985 -62.29779555050375 -20.13995731939324 7.3178389990782575 96.04974362363363 -3.9756933518293955e-16 1.4138293610941915e-32 -4.07508568562513e-15
